<svg id="Layer_1" data-name="Layer 1" xmlns="http://www.w3.org/2000/svg" viewBox="0 0 500 500"><defs><style>.cls-1{fill:none;}.cls-2{fill:#13213e;}</style></defs><path class="cls-1" d="M27.55,189.82l.1.3,89.46,238.31a24.2,24.2,0,0,0,19.82,15.5h0a29.28,29.28,0,0,0,14.37-1.71l117.12-43h0L288.81,393a.33.33,0,0,1,.29,0l16.35,6.2L353.05,416a26.52,26.52,0,0,0,33.31-14.1c.09-.2.17-.38.23-.54.31-.76.46-1.18.46-1.18l85.1-236.06a26.5,26.5,0,0,0-8.51-29.92l0,0a26.41,26.41,0,0,0-7.31-4.07L324.06,77.18a26.23,26.23,0,0,0-33.61,15.64.45.45,0,0,1-.43.3L143.24,91.48A26.54,26.54,0,0,0,116.7,118v9.36a.47.47,0,0,1-.28.43L44.73,157.57C32.27,162.26,24.07,174,26.57,186.36a.28.28,0,0,1,0,.08C27,188.12,27.38,189.3,27.55,189.82Z"/><path class="cls-2" d="M386.36,401.86A26.52,26.52,0,0,1,353.05,416l-47.6-16.76L289.1,393a.33.33,0,0,0-.29,0l-20.35,6.21h0l-117.12,43a29.28,29.28,0,0,1-14.37,1.71h0c-.82.23-24.76,6.43-37.84-11.9l5,13.38a29.48,29.48,0,0,0,38,17.15l126.53-47.83h0l22.63-6.91a.42.42,0,0,1,.31,0l18.19,6.89L357.21,432C374.26,428,383.86,407.87,386.36,401.86Z"/><path class="cls-2" d="M463.64,134.16a26.5,26.5,0,0,1,8.51,29.92l-85.1,236.06s-.15.42-.46,1.18c-.06.16-.14.34-.23.54-2.5,6-12.1,26.1-29.15,30.17l3.69,1.34a29.5,29.5,0,0,0,37.81-17.61L487.4,172.69v0C487.38,145.76,464.36,134.5,463.64,134.16Z"/><path class="cls-2" d="M477.49,113.79,321.4,56.85A29.11,29.11,0,0,0,284,74.23a.52.52,0,0,1-.48.33h-154A29.48,29.48,0,0,0,100.05,104v10.42a.51.51,0,0,1-.32.48L33.12,140.11c-13.83,11.62-9,36.74-6.55,46.25-2.5-12.38,5.7-24.1,18.16-28.79l71.69-29.76a.47.47,0,0,0,.28-.43V118a26.54,26.54,0,0,1,26.54-26.54L290,93.12a.45.45,0,0,0,.43-.3,26.23,26.23,0,0,1,33.61-15.64l132.25,52.89a26.41,26.41,0,0,1,7.31,4.07l0,0c.72.34,23.74,11.6,23.76,38.51l7.69-21.07A29.5,29.5,0,0,0,477.49,113.79Z"/><path class="cls-2" d="M136.93,443.93a24.2,24.2,0,0,1-19.82-15.5L27.65,190.12l-.1-.3a21.47,21.47,0,0,1-1-3.38.28.28,0,0,0,0-.08c-2.46-9.51-7.28-34.63,6.55-46.25l-11.24,4.24a29.48,29.48,0,0,0-17.15,38L99.09,432C112.17,450.36,136.11,444.16,136.93,443.93Z"/><path class="cls-2" d="M262.21,374.5h36.37l-.83-.63c-22.07-4.1-31-54.66-31-54.66,10.62,7,37.43,16.19,37.43,16.19,47.75,8,62.62-19.68,62.49-49.29a56.13,56.13,0,0,0-10.3-31.29C341.22,216.9,259,130.3,259,130.3s-82.2,86.6-97.38,124.52c0,0-9,15.11-8.93,33.25.09,24.17,13.32,55,61.07,46.94,0,0,29.13-8.76,39.75-15.8,0,0-11.17,50.56-33.23,54.66l-.83.63h42.74Z"/><path class="cls-1" d="M356.65,256.53c-15-37.11-96.23-121.84-96.23-121.84s-81.24,84.73-96.24,121.84c0,0-8.91,14.79-8.84,32.53.1,23.65,13.19,51.95,60.38,44.08,0,0,28.76-8.95,39.26-15.84,0,0-6.56,51.7-28.37,55.7l30.66-.49h6.3l30.65.49c-21.81-4-28.37-55.7-28.37-55.7,10.5,6.89,39.26,15.84,39.26,15.84,47.2,7.87,60.28-20.43,60.38-44.08C365.56,271.32,356.65,256.53,356.65,256.53Z"/><path class="cls-2" d="M365,255.68c-16.29-40.3-104.54-132.34-104.54-132.34s-88.25,92-104.55,132.34c0,0-9.67,16.07-9.59,35.35.1,25.69,14.32,56.43,65.58,47.88,0,0,26.4-7.3,37.8-14.78,0,0-7.13,44-30.82,48.37l-.89,3.11h84.93L302,372.5c-23.69-4.35-30.81-48.37-30.81-48.37,11.4,7.48,37.79,14.78,37.79,14.78,51.27,8.55,65.48-22.19,65.59-47.88C374.63,271.75,365,255.68,365,255.68Zm-59.85,77.46s-28.76-8.95-39.26-15.84c0,0,6.56,51.7,28.37,55.7l-30.65-.49h-6.3l-30.66.49c21.81-4,28.37-55.7,28.37-55.7-10.5,6.89-39.26,15.84-39.26,15.84-47.19,7.87-60.28-20.43-60.38-44.08-.07-17.74,8.84-32.53,8.84-32.53,15-37.11,96.24-121.84,96.24-121.84s81.23,84.73,96.23,121.84c0,0,8.91,14.79,8.84,32.53C365.39,312.71,352.31,341,305.11,333.14Z"/></svg>