<svg id="Layer_1" data-name="Layer 1" xmlns="http://www.w3.org/2000/svg" viewBox="0 0 500 500"><defs><style>.cls-1{fill:none;}.cls-2{fill:#231f20;}</style></defs><path class="cls-1" d="M30.48,188.85l.1.29L119.5,426a24.07,24.07,0,0,0,19.7,15.4h0a29.14,29.14,0,0,0,14.28-1.69L269.91,397h0l20.22-6.17a.35.35,0,0,1,.3,0L306.72,397,354,413.63a26.37,26.37,0,0,0,33.12-14c.08-.19.16-.37.22-.53.31-.75.46-1.18.46-1.18l84.59-234.64A26.35,26.35,0,0,0,464,133.51h0a25.72,25.72,0,0,0-7.27-4L325.21,76.88A26.08,26.08,0,0,0,291.8,92.43a.43.43,0,0,1-.42.29l-145.9-1.63a26.4,26.4,0,0,0-26.39,26.39v9.3a.45.45,0,0,1-.28.43L47.56,156.79C35.17,161.45,27,173.1,29.5,185.41a.13.13,0,0,1,0,.08C30,187.15,30.32,188.32,30.48,188.85Z"/><path class="cls-2" d="M387.15,399.61a26.37,26.37,0,0,1-33.12,14L306.72,397l-16.25-6.16a.35.35,0,0,0-.3,0L270,397h0L153.5,439.74a29.14,29.14,0,0,1-14.28,1.69h0c-.81.23-24.61,6.39-37.61-11.83l5,13.3A29.31,29.31,0,0,0,144.39,460l125.77-47.54h0l22.49-6.86a.37.37,0,0,1,.31,0l18.08,6.85,47.1,17.19C375.12,425.56,384.65,405.59,387.15,399.61Z"/><path class="cls-2" d="M464,133.51a26.35,26.35,0,0,1,8.46,29.75L387.83,397.9s-.15.43-.46,1.18c-.06.16-.14.34-.22.53-2.5,6-12,25.95-29,30l3.67,1.34a29.32,29.32,0,0,0,37.58-17.51l88.16-241.62h0C487.56,145.05,464.68,133.86,464,133.51Z"/><path class="cls-2" d="M477.73,113.27,322.57,56.67a29,29,0,0,0-37.14,17.27.5.5,0,0,1-.47.33H131.85a29.3,29.3,0,0,0-29.3,29.3v10.37a.51.51,0,0,1-.33.47l-66.2,25c-13.76,11.56-9,36.52-6.52,46-2.48-12.31,5.67-24,18.06-28.62l71.25-29.58a.45.45,0,0,0,.28-.43v-9.3a26.4,26.4,0,0,1,26.39-26.39l145.9,1.63a.43.43,0,0,0,.42-.29,26.08,26.08,0,0,1,33.41-15.55l131.46,52.58a25.72,25.72,0,0,1,7.27,4h0c.72.35,23.6,11.54,23.62,38.29l7.64-20.94A29.33,29.33,0,0,0,477.73,113.27Z"/><path class="cls-2" d="M139.2,441.43A24.07,24.07,0,0,1,119.5,426L30.58,189.14l-.1-.29a22.65,22.65,0,0,1-1-3.36.13.13,0,0,0,0-.08C27.06,176,22.26,151,36,139.43l-11.18,4.22a29.31,29.31,0,0,0-17,37.78l93.8,248.17C114.59,447.82,138.39,441.66,139.2,441.43Z"/><path class="cls-2" d="M263.74,372.42h36.15l-.83-.63c-21.93-4.07-30.78-54.33-30.78-54.33,10.55,7,37.2,16.09,37.2,16.09,47.47,8,62.25-19.56,62.12-49a55.79,55.79,0,0,0-10.24-31.11c-15.08-37.69-96.79-123.77-96.79-123.77s-81.71,86.08-96.8,123.77c0,0-9,15-8.88,33.06.09,24,13.24,54.65,60.7,46.66,0,0,29-8.71,39.51-15.71,0,0-11.09,50.26-33,54.33l-.82.63h42.49Z"/><path class="cls-1" d="M357.62,255.15C342.71,218.27,262,134.05,262,134.05s-80.75,84.22-95.66,121.1c0,0-8.85,14.7-8.78,32.34.09,23.51,13.1,51.64,60,43.82,0,0,28.6-8.9,39-15.75,0,0-6.52,51.39-28.2,55.37l30.47-.49h6.26l30.48.49c-21.68-4-28.2-55.37-28.2-55.37,10.43,6.85,39,15.75,39,15.75,46.91,7.82,59.92-20.31,60-43.82C366.47,269.85,357.62,255.15,357.62,255.15Z"/><path class="cls-2" d="M365.87,254.32C349.67,214.25,262,122.76,262,122.76S174.23,214.25,158,254.32c0,0-9.61,16-9.53,35.13.1,25.53,14.23,56.1,65.19,47.6,0,0,26.23-7.26,37.57-14.7,0,0-7.09,43.76-30.63,48.09l-.89,3.09h84.42l-.88-3.09c-23.55-4.33-30.63-48.09-30.63-48.09,11.33,7.44,37.57,14.7,37.57,14.7,51,8.5,65.09-22.07,65.19-47.6C375.49,270.29,365.87,254.32,365.87,254.32Zm-59.49,77s-28.59-8.9-39-15.75c0,0,6.52,51.39,28.2,55.37l-30.48-.49h-6.26l-30.47.49c21.68-4,28.2-55.37,28.2-55.37-10.43,6.85-39,15.75-39,15.75-46.91,7.82-59.92-20.31-60-43.82-.07-17.64,8.78-32.34,8.78-32.34C181.2,218.27,262,134.05,262,134.05s80.76,84.22,95.67,121.1c0,0,8.85,14.7,8.77,32.34C366.3,311,353.29,339.13,306.38,331.31Z"/></svg>