<svg id="Layer_1" data-name="Layer 1" xmlns="http://www.w3.org/2000/svg" xmlns:xlink="http://www.w3.org/1999/xlink" viewBox="0 0 500 500"><defs><style>.cls-1{fill:none;}.cls-2{fill:url(#linear-gradient);}.cls-3{fill:url(#linear-gradient-2);}.cls-4{fill:url(#linear-gradient-3);}.cls-5{fill:url(#linear-gradient-4);}.cls-6{fill:#13213e;}</style><linearGradient id="linear-gradient" x1="100.98" y1="425.32" x2="386.48" y2="425.32" gradientUnits="userSpaceOnUse"><stop offset="0" stop-color="#1d3d6f"/><stop offset="0.24" stop-color="#6784a7"/><stop offset="0.51" stop-color="#b5cfe3"/><stop offset="0.63" stop-color="#d4edfb"/><stop offset="0.68" stop-color="#c6e8f5"/><stop offset="0.82" stop-color="#a2dbe7"/><stop offset="0.93" stop-color="#8cd4de"/><stop offset="1" stop-color="#84d1db"/></linearGradient><linearGradient id="linear-gradient-2" x1="398.49" y1="314.69" x2="487.28" y2="202.85" gradientUnits="userSpaceOnUse"><stop offset="0" stop-color="#56c2ef"/><stop offset="0.12" stop-color="#51abdf"/><stop offset="0.26" stop-color="#4d9ad3"/><stop offset="0.4" stop-color="#4b8fcc"/><stop offset="0.57" stop-color="#4a8cca"/><stop offset="0.65" stop-color="#4788c5"/><stop offset="0.75" stop-color="#407bb6"/><stop offset="0.85" stop-color="#34659d"/><stop offset="0.96" stop-color="#23487b"/><stop offset="1" stop-color="#1d3d6f"/></linearGradient><linearGradient id="linear-gradient-3" x1="29.89" y1="111.19" x2="508.82" y2="138.53" gradientUnits="userSpaceOnUse"><stop offset="0" stop-color="#56c2ef"/><stop offset="0.07" stop-color="#5cc4ef"/><stop offset="0.18" stop-color="#6ecbf1"/><stop offset="0.3" stop-color="#8cd5f3"/><stop offset="0.43" stop-color="#b5e4f5"/><stop offset="0.54" stop-color="#e0f3f8"/><stop offset="0.59" stop-color="#b9d8ec"/><stop offset="0.64" stop-color="#97c1e2"/><stop offset="0.7" stop-color="#7badd9"/><stop offset="0.75" stop-color="#659fd2"/><stop offset="0.82" stop-color="#5694ce"/><stop offset="0.89" stop-color="#4d8ecb"/><stop offset="1" stop-color="#4a8cca"/></linearGradient><linearGradient id="linear-gradient-4" x1="43.71" y1="184.62" x2="100.32" y2="429.83" gradientUnits="userSpaceOnUse"><stop offset="0" stop-color="#4a8cca"/><stop offset="0.1" stop-color="#4889c6"/><stop offset="0.2" stop-color="#427fba"/><stop offset="0.29" stop-color="#396ea7"/><stop offset="0.39" stop-color="#2b568c"/><stop offset="0.47" stop-color="#1d3d6f"/><stop offset="0.6" stop-color="#1a345f"/><stop offset="0.85" stop-color="#152647"/><stop offset="1" stop-color="#13213e"/></linearGradient></defs><path class="cls-1" d="M29.89,187.91l.1.29L118.89,425a24.07,24.07,0,0,0,19.7,15.4h0a29.1,29.1,0,0,0,14.27-1.7L269.27,396h0l20.23-6.18a.37.37,0,0,1,.29,0L306.06,396l47.31,16.65a26.36,26.36,0,0,0,33.11-14c.08-.2.16-.38.22-.54.31-.75.46-1.17.46-1.17l84.57-234.59a26.33,26.33,0,0,0-8.46-29.74v0a26.51,26.51,0,0,0-7.27-4L324.56,76a26.08,26.08,0,0,0-33.41,15.54.43.43,0,0,1-.42.3L144.86,90.18a26.39,26.39,0,0,0-26.38,26.38v9.3a.43.43,0,0,1-.27.42L47,155.86c-12.39,4.66-20.53,16.31-18.06,28.61a.15.15,0,0,1,0,.08C29.37,186.22,29.73,187.39,29.89,187.91Z"/><path class="cls-2" d="M386.48,398.63a26.36,26.36,0,0,1-33.11,14L306.06,396l-16.24-6.16a.37.37,0,0,0-.29,0L269.3,396h0L152.88,438.74a29.1,29.1,0,0,1-14.27,1.7h0c-.81.23-24.6,6.39-37.61-11.83l5,13.3a29.31,29.31,0,0,0,37.77,17l125.75-47.53h0L292,404.56a.41.41,0,0,1,.31,0l18.07,6.84,47.1,17.19C374.45,424.57,384,404.61,386.48,398.63Z"/><path class="cls-3" d="M463.27,132.59a26.33,26.33,0,0,1,8.46,29.74L387.16,396.92s-.15.42-.46,1.17c-.06.16-.14.34-.22.54-2.5,6-12,25.94-29,30l3.66,1.34a29.33,29.33,0,0,0,37.58-17.5l88.13-241.57h0C486.87,144.13,464,132.93,463.27,132.59Z"/><path class="cls-4" d="M477,112.35,321.92,55.76A29,29,0,0,0,284.78,73a.49.49,0,0,1-.47.33H131.24A29.29,29.29,0,0,0,102,102.66V113a.52.52,0,0,1-.33.47l-66.19,25c-13.75,11.55-9,36.51-6.52,46-2.47-12.3,5.67-23.95,18.06-28.61l71.24-29.58a.43.43,0,0,0,.27-.42v-9.3a26.39,26.39,0,0,1,26.38-26.38l145.87,1.63a.43.43,0,0,0,.42-.3A26.08,26.08,0,0,1,324.56,76L456,128.53a26.51,26.51,0,0,1,7.27,4v0c.72.34,23.6,11.54,23.61,38.28l7.64-20.94A29.32,29.32,0,0,0,477,112.35Z"/><path class="cls-5" d="M138.59,440.44a24.07,24.07,0,0,1-19.7-15.4L30,188.2l-.1-.29a22,22,0,0,1-1-3.36.15.15,0,0,0,0-.08c-2.44-9.45-7.23-34.41,6.52-46l-11.18,4.22a29.3,29.3,0,0,0-17,37.77L101,428.61C114,446.83,137.78,440.67,138.59,440.44Z"/><path class="cls-6" d="M263.09,371.44h36.15l-.83-.63c-21.93-4.07-30.77-54.32-30.77-54.32,10.55,7,37.19,16.09,37.19,16.09,47.45,8,62.24-19.55,62.1-49a55.82,55.82,0,0,0-10.23-31.1c-15.08-37.68-96.77-123.74-96.77-123.74s-81.69,86.06-96.78,123.74c0,0-9,15-8.88,33.05.1,24,13.66,54.77,61.12,46.77,0,0,28.52-8.83,39.07-15.83,0,0-11.09,50.25-33,54.32l-.82.63h42.47Z"/><path class="cls-1" d="M357,254.2c-14.9-36.87-95.64-121.08-95.64-121.08s-80.73,84.21-95.64,121.08c0,0-8.85,14.7-8.78,32.33.1,23.51,13.1,51.63,60,43.81,0,0,28.59-8.9,39-15.74,0,0-6.52,51.37-28.19,55.35l30.46-.48h6.26l30.47.48c-21.68-4-28.19-55.35-28.19-55.35,10.42,6.84,39,15.74,39,15.74,46.9,7.82,59.91-20.3,60-43.81C365.8,268.9,357,254.2,357,254.2Z"/></svg>